#!OML:ASF I:\golf\golf\golf 2\Subject 1\2002-09-07\Subject1.ASF
:FULLY-SPECIFIED
:DEGREES
520
root 2.25875 17.7825 -5.51093 5.78796 -9.19967 -2.88468
lowerback -0.940538 -0.774495 -6.52766
upperback 0.0915976 -0.992981 4.25745
thorax 0.812588 -0.540268 8.12926
lowerneck -23.1284 -6.90712 -4.07384
upperneck 16.2206 -8.99825 4.10749
head 9.25961 -3.99101 0.753193
rclavicle 2.83268e-015 -9.54166e-015
rhumerus -40.8441 -24.1522 -62.9444
rradius 21.2275
rwrist -3.85302
rhand -17.6937 6.79871
rfingers 7.12502
rthumb 8.5659 -23.0075
lclavicle 2.83268e-015 -9.54166e-015
lhumerus -36.8077 11.2617 79.2478
lradius 19.6258
lwrist -5.56883
lhand -6.42838 32.9565
lfingers 7.12502
lthumb 19.4205 62.0067
rfemur -31.656 -2.10446 14.9979
rtibia 45.4818
rfoot -10.2371 -12.4708
rtoes 10.0044
lfemur -11.6905 6.03258 -21.0641
ltibia 31.0297
lfoot -18.9635 6.88568
ltoes -6.97266
521
root 2.24753 17.7918 -5.51679 5.73573 -9.31819 -3.03155
lowerback -1.06495 -0.77218 -6.41309
upperback 0.165717 -0.986054 4.34658
thorax 0.958058 -0.545458 8.15672
lowerneck -23.0944 -6.84112 -4.13498
upperneck 16.1582 -8.88821 4.12097
head 9.23103 -3.94381 0.786021
rclavicle -3.19546e-014 3.22031e-014
rhumerus -40.2988 -23.6094 -63.5605
rradius 21.558
rwrist -4.4512
rhand -17.7855 6.92205
rfingers 7.12502
rthumb 8.47732 -22.8878
lclavicle -3.19546e-014 3.22031e-014
lhumerus -36.6736 11.3487 79.3497
lradius 19.8345
lwrist -5.5299
lhand -6.33585 32.6549
lfingers 7.12502
lthumb 19.5095 61.6961
rfemur -31.3048 -2.24398 15.0529
rtibia 46.0309
rfoot -10.4138 -12.4125
rtoes 10.5535
lfemur -11.6335 6.0108 -20.8645
ltibia 31.0945
lfoot -19.048 6.96308
ltoes -6.7329
522
root 2.23479 17.7957 -5.52241 5.68559 -9.45577 -3.08357
lowerback -1.16189 -0.742714 -6.43031
upperback 0.196307 -0.942337 4.41214
thorax 1.0377 -0.528362 8.23752
lowerneck -22.907 -6.79267 -4.04635
upperneck 15.9576 -8.81457 3.97296
head 9.11401 -3.92783 0.740988
rclavicle 2.03754e-015 1.59028e-015
rhumerus -39.8347 -22.7067 -64.3895
rradius 22.0659
rwrist -5.65388
rhand -18.023 6.97659
rfingers 7.12502
rthumb 8.2481 -22.8424
lclavicle 2.03754e-015 1.59028e-015
lhumerus -36.4729 11.3609 79.4517
lradius 19.8545
lwrist -5.50328
lhand -6.32035 32.6817
lfingers 7.12502
lthumb 19.5244 61.7214
rfemur -30.9456 -2.31124 15.003
rtibia 46.5206
rfoot -10.4285 -12.3601
rtoes 9.58094
lfemur -11.5773 5.89034 -20.7782
ltibia 31.1252
lfoot -19.0158 7.19212
ltoes -6.69114
523
root 2.21792 17.7926 -5.52872 5.6935 -9.64408 -3.15882
lowerback -1.33445 -0.68855 -6.38519
upperback 0.218483 -0.862237 4.43445
thorax 1.14233 -0.49304 8.23561
lowerneck -22.8525 -6.77235 -3.98556
upperneck 15.9964 -8.79659 3.90722
head 9.11124 -3.92366 0.712872
rclavicle 1.635e-014 -1.66979e-014
rhumerus -39.4486 -21.9053 -65.1363
rradius 22.5309
rwrist -6.3858
rhand -18.1083 7.12875
rfingers 7.12502
rthumb 8.16577 -22.6935
lclavicle 1.635e-014 -1.66979e-014
lhumerus -36.2069 11.0137 79.6515
lradius 19.9084
lwrist -5.17239
lhand -6.56637 32.8907
lfingers 7.12502
lthumb 19.2878 61.9542
rfemur -30.6451 -2.19246 14.9817
rtibia 46.9663
rfoot -10.3183 -12.4957
rtoes 8.04424
lfemur -11.5863 5.84035 -20.6723
ltibia 31.1428
lfoot -19.0328 7.64429
ltoes -8.23786
524
root 2.20066 17.7971 -5.53269 5.74198 -9.82645 -3.32259
lowerback -1.50774 -0.639825 -6.20736
upperback 0.204356 -0.792149 4.46028
thorax 1.20957 -0.458966 8.16003
lowerneck -22.8383 -6.7555 -3.96709
upperneck 16.2018 -8.78951 3.89721
head 9.17878 -3.91745 0.705157
rclavicle 1.73937e-015 -1.98785e-015
rhumerus -39.1265 -21.4651 -65.5902
rradius 22.7955
rwrist -6.33021
rhand -18.0338 7.43917
rfingers 7.12502
rthumb 8.23776 -22.3802
lclavicle 1.73937e-015 -1.98785e-015
lhumerus -36.0466 10.4306 79.9379
lradius 20.1798
lwrist -4.56325
lhand -6.79653 33.0145
lfingers 7.12502
lthumb 19.0665 62.0999
rfemur -30.379 -2.11199 15.0466
rtibia 47.3767
rfoot -10.2896 -12.4904
rtoes 7.97785
lfemur -11.6479 5.84743 -20.469
ltibia 31.1889
lfoot -19.1245 8.1949
ltoes -11.2288
525
root 2.18601 17.803 -5.53269 5.77208 -9.96897 -3.45255
lowerback -1.54074 -0.597716 -6.01972
upperback 0.103659 -0.737691 4.48207
thorax 1.11088 -0.4229 8.07533
lowerneck -22.7427 -6.7428 -4.02311
upperneck 16.3976 -8.77466 3.92254
head 9.2342 -3.90999 0.724627
rclavicle -1.32192e-014 4.37326e-015
rhumerus -38.9035 -20.8361 -66.0941
rradius 23.1594
rwrist -6.60111
rhand -18.0595 7.44585
rfingers 7.12502
rthumb 8.21287 -22.3745
lclavicle -1.32192e-014 4.37326e-015
lhumerus -36.0524 9.96941 80.1525
lradius 20.5016
lwrist -3.99904
lhand -6.87868 32.9296
lfingers 7.12502
lthumb 18.9875 62.0228
rfemur -30.0739 -2.12041 15.0555
rtibia 47.743
rfoot -10.2602 -12.321
rtoes 8.56366
lfemur -11.6665 5.65949 -20.3111
ltibia 31.2493
lfoot -19.0762 8.66151
ltoes -12.8224
